<svg width="1920" height="86" viewBox="0 0 1920 86" fill="none" xmlns="http://www.w3.org/2000/svg">
<path d="M910.892 52.212H900.884L899.228 57H893.936L902.972 31.836H908.84L917.876 57H912.548L910.892 52.212ZM909.524 48.18L905.888 37.668L902.252 48.18H909.524ZM928.094 39.972C928.742 39.012 929.63 38.232 930.758 37.632C931.91 37.032 933.218 36.732 934.682 36.732C936.386 36.732 937.922 37.152 939.29 37.992C940.682 38.832 941.774 40.032 942.566 41.592C943.382 43.128 943.79 44.916 943.79 46.956C943.79 48.996 943.382 50.808 942.566 52.392C941.774 53.952 940.682 55.164 939.29 56.028C937.922 56.892 936.386 57.324 934.682 57.324C933.194 57.324 931.886 57.036 930.758 56.46C929.654 55.86 928.766 55.092 928.094 54.156V57H923.054V30.36H928.094V39.972ZM938.642 46.956C938.642 45.756 938.39 44.724 937.886 43.86C937.406 42.972 936.758 42.3 935.942 41.844C935.15 41.388 934.286 41.16 933.35 41.16C932.438 41.16 931.574 41.4 930.758 41.88C929.966 42.336 929.318 43.008 928.814 43.896C928.334 44.784 928.094 45.828 928.094 47.028C928.094 48.228 928.334 49.272 928.814 50.16C929.318 51.048 929.966 51.732 930.758 52.212C931.574 52.668 932.438 52.896 933.35 52.896C934.286 52.896 935.15 52.656 935.942 52.176C936.758 51.696 937.406 51.012 937.886 50.124C938.39 49.236 938.642 48.18 938.642 46.956ZM958.108 57.324C956.188 57.324 954.46 56.904 952.924 56.064C951.388 55.2 950.176 53.988 949.288 52.428C948.424 50.868 947.992 49.068 947.992 47.028C947.992 44.988 948.436 43.188 949.324 41.628C950.236 40.068 951.472 38.868 953.032 38.028C954.592 37.164 956.332 36.732 958.252 36.732C960.172 36.732 961.912 37.164 963.472 38.028C965.032 38.868 966.256 40.068 967.144 41.628C968.056 43.188 968.512 44.988 968.512 47.028C968.512 49.068 968.044 50.868 967.108 52.428C966.196 53.988 964.948 55.2 963.364 56.064C961.804 56.904 960.052 57.324 958.108 57.324ZM958.108 52.932C959.02 52.932 959.872 52.716 960.664 52.284C961.48 51.828 962.128 51.156 962.608 50.268C963.088 49.38 963.328 48.3 963.328 47.028C963.328 45.132 962.824 43.68 961.816 42.672C960.832 41.64 959.62 41.124 958.18 41.124C956.74 41.124 955.528 41.64 954.544 42.672C953.584 43.68 953.104 45.132 953.104 47.028C953.104 48.924 953.572 50.388 954.508 51.42C955.468 52.428 956.668 52.932 958.108 52.932ZM992.837 37.056V57H987.761V54.48C987.113 55.344 986.261 56.028 985.205 56.532C984.173 57.012 983.045 57.252 981.821 57.252C980.261 57.252 978.881 56.928 977.681 56.28C976.481 55.608 975.533 54.636 974.837 53.364C974.165 52.068 973.829 50.532 973.829 48.756V37.056H978.869V48.036C978.869 49.62 979.265 50.844 980.057 51.708C980.849 52.548 981.929 52.968 983.297 52.968C984.689 52.968 985.781 52.548 986.573 51.708C987.365 50.844 987.761 49.62 987.761 48.036V37.056H992.837ZM1005.48 41.196V50.844C1005.48 51.516 1005.63 52.008 1005.95 52.32C1006.28 52.608 1006.83 52.752 1007.6 52.752H1009.94V57H1006.77C1002.53 57 1000.4 54.936 1000.4 50.808V41.196H998.026V37.056H1000.4V32.124H1005.48V37.056H1009.94V41.196H1005.48Z" fill="white"/>
<path d="M1030.71 31.872V47.424C1030.71 49.128 1031.16 50.436 1032.04 51.348C1032.93 52.236 1034.18 52.68 1035.79 52.68C1037.42 52.68 1038.68 52.236 1039.57 51.348C1040.46 50.436 1040.9 49.128 1040.9 47.424V31.872H1045.98V47.388C1045.98 49.524 1045.51 51.336 1044.57 52.824C1043.66 54.288 1042.42 55.392 1040.86 56.136C1039.33 56.88 1037.61 57.252 1035.72 57.252C1033.84 57.252 1032.14 56.88 1030.6 56.136C1029.09 55.392 1027.89 54.288 1027 52.824C1026.12 51.336 1025.67 49.524 1025.67 47.388V31.872H1030.71ZM1060.28 57.324C1058.65 57.324 1057.18 57.036 1055.89 56.46C1054.59 55.86 1053.56 55.056 1052.79 54.048C1052.05 53.04 1051.64 51.924 1051.57 50.7H1056.64C1056.74 51.468 1057.11 52.104 1057.76 52.608C1058.43 53.112 1059.26 53.364 1060.24 53.364C1061.2 53.364 1061.95 53.172 1062.47 52.788C1063.03 52.404 1063.3 51.912 1063.3 51.312C1063.3 50.664 1062.97 50.184 1062.29 49.872C1061.65 49.536 1060.6 49.176 1059.16 48.792C1057.67 48.432 1056.45 48.06 1055.49 47.676C1054.55 47.292 1053.74 46.704 1053.04 45.912C1052.37 45.12 1052.03 44.052 1052.03 42.708C1052.03 41.604 1052.35 40.596 1052.97 39.684C1053.62 38.772 1054.53 38.052 1055.71 37.524C1056.91 36.996 1058.31 36.732 1059.92 36.732C1062.29 36.732 1064.19 37.332 1065.61 38.532C1067.02 39.708 1067.8 41.304 1067.95 43.32H1063.12C1063.05 42.528 1062.71 41.904 1062.11 41.448C1061.54 40.968 1060.76 40.728 1059.77 40.728C1058.86 40.728 1058.15 40.896 1057.65 41.232C1057.17 41.568 1056.93 42.036 1056.93 42.636C1056.93 43.308 1057.27 43.824 1057.94 44.184C1058.61 44.52 1059.65 44.868 1061.07 45.228C1062.51 45.588 1063.7 45.96 1064.63 46.344C1065.57 46.728 1066.37 47.328 1067.05 48.144C1067.74 48.936 1068.1 49.992 1068.13 51.312C1068.13 52.464 1067.8 53.496 1067.15 54.408C1066.53 55.32 1065.62 56.04 1064.42 56.568C1063.24 57.072 1061.86 57.324 1060.28 57.324Z" fill="#FF7B3D"/>
<rect x="817" width="329" height="86" rx="1" stroke="#D9D9D9" stroke-width="4" mask="url(#path-1-inside-1)"/>
<rect x="-3" y="44" width="820" height="2" fill="#C4C4C4"/>
<rect width="779" height="2" transform="matrix(1 0 0 -1 1146 45)" fill="#C4C4C4"/>
</svg>
