<svg width="1920" height="86" viewBox="0 0 1920 86" fill="none" xmlns="http://www.w3.org/2000/svg">
<path d="M869.76 44.4C869.76 41.928 870.312 39.72 871.416 37.776C872.544 35.808 874.068 34.284 875.988 33.204C877.932 32.1 880.104 31.548 882.504 31.548C885.312 31.548 887.772 32.268 889.884 33.708C891.996 35.148 893.472 37.14 894.312 39.684H888.516C887.94 38.484 887.124 37.584 886.068 36.984C885.036 36.384 883.836 36.084 882.468 36.084C881.004 36.084 879.696 36.432 878.544 37.128C877.416 37.8 876.528 38.76 875.88 40.008C875.256 41.256 874.944 42.72 874.944 44.4C874.944 46.056 875.256 47.52 875.88 48.792C876.528 50.04 877.416 51.012 878.544 51.708C879.696 52.38 881.004 52.716 882.468 52.716C883.836 52.716 885.036 52.416 886.068 51.816C887.124 51.192 887.94 50.28 888.516 49.08H894.312C893.472 51.648 891.996 53.652 889.884 55.092C887.796 56.508 885.336 57.216 882.504 57.216C880.104 57.216 877.932 56.676 875.988 55.596C874.068 54.492 872.544 52.968 871.416 51.024C870.312 49.08 869.76 46.872 869.76 44.4ZM909.273 57.324C907.353 57.324 905.625 56.904 904.089 56.064C902.553 55.2 901.341 53.988 900.453 52.428C899.589 50.868 899.157 49.068 899.157 47.028C899.157 44.988 899.601 43.188 900.489 41.628C901.401 40.068 902.637 38.868 904.197 38.028C905.757 37.164 907.497 36.732 909.417 36.732C911.337 36.732 913.077 37.164 914.637 38.028C916.197 38.868 917.421 40.068 918.309 41.628C919.221 43.188 919.677 44.988 919.677 47.028C919.677 49.068 919.209 50.868 918.273 52.428C917.361 53.988 916.113 55.2 914.529 56.064C912.969 56.904 911.217 57.324 909.273 57.324ZM909.273 52.932C910.185 52.932 911.037 52.716 911.829 52.284C912.645 51.828 913.293 51.156 913.773 50.268C914.253 49.38 914.493 48.3 914.493 47.028C914.493 45.132 913.989 43.68 912.981 42.672C911.997 41.64 910.785 41.124 909.345 41.124C907.905 41.124 906.693 41.64 905.709 42.672C904.749 43.68 904.269 45.132 904.269 47.028C904.269 48.924 904.737 50.388 905.673 51.42C906.633 52.428 907.833 52.932 909.273 52.932ZM936.226 36.768C938.602 36.768 940.522 37.524 941.986 39.036C943.45 40.524 944.182 42.612 944.182 45.3V57H939.142V45.984C939.142 44.4 938.746 43.188 937.954 42.348C937.162 41.484 936.082 41.052 934.714 41.052C933.322 41.052 932.218 41.484 931.402 42.348C930.61 43.188 930.214 44.4 930.214 45.984V57H925.174V37.056H930.214V39.54C930.886 38.676 931.738 38.004 932.77 37.524C933.826 37.02 934.978 36.768 936.226 36.768ZM956.643 41.196V50.844C956.643 51.516 956.799 52.008 957.111 52.32C957.447 52.608 957.999 52.752 958.767 52.752H961.107V57H957.939C953.691 57 951.567 54.936 951.567 50.808V41.196H949.191V37.056H951.567V32.124H956.643V37.056H961.107V41.196H956.643ZM965.236 46.956C965.236 44.94 965.632 43.152 966.424 41.592C967.24 40.032 968.332 38.832 969.7 37.992C971.092 37.152 972.64 36.732 974.344 36.732C975.832 36.732 977.128 37.032 978.232 37.632C979.36 38.232 980.26 38.988 980.932 39.9V37.056H986.008V57H980.932V54.084C980.284 55.02 979.384 55.8 978.232 56.424C977.104 57.024 975.796 57.324 974.308 57.324C972.628 57.324 971.092 56.892 969.7 56.028C968.332 55.164 967.24 53.952 966.424 52.392C965.632 50.808 965.236 48.996 965.236 46.956ZM980.932 47.028C980.932 45.804 980.692 44.76 980.212 43.896C979.732 43.008 979.084 42.336 978.268 41.88C977.452 41.4 976.576 41.16 975.64 41.16C974.704 41.16 973.84 41.388 973.048 41.844C972.256 42.3 971.608 42.972 971.104 43.86C970.624 44.724 970.384 45.756 970.384 46.956C970.384 48.156 970.624 49.212 971.104 50.124C971.608 51.012 972.256 51.696 973.048 52.176C973.864 52.656 974.728 52.896 975.64 52.896C976.576 52.896 977.452 52.668 978.268 52.212C979.084 51.732 979.732 51.06 980.212 50.196C980.692 49.308 980.932 48.252 980.932 47.028ZM991.434 47.028C991.434 44.964 991.854 43.164 992.694 41.628C993.534 40.068 994.698 38.868 996.186 38.028C997.674 37.164 999.378 36.732 1001.3 36.732C1003.77 36.732 1005.81 37.356 1007.42 38.604C1009.05 39.828 1010.14 41.556 1010.69 43.788H1005.26C1004.97 42.924 1004.48 42.252 1003.78 41.772C1003.11 41.268 1002.27 41.016 1001.26 41.016C999.822 41.016 998.682 41.544 997.842 42.6C997.002 43.632 996.582 45.108 996.582 47.028C996.582 48.924 997.002 50.4 997.842 51.456C998.682 52.488 999.822 53.004 1001.26 53.004C1003.3 53.004 1004.63 52.092 1005.26 50.268H1010.69C1010.14 52.428 1009.05 54.144 1007.42 55.416C1005.79 56.688 1003.75 57.324 1001.3 57.324C999.378 57.324 997.674 56.904 996.186 56.064C994.698 55.2 993.534 54 992.694 52.464C991.854 50.904 991.434 49.092 991.434 47.028ZM1022.05 41.196V50.844C1022.05 51.516 1022.21 52.008 1022.52 52.32C1022.86 52.608 1023.41 52.752 1024.18 52.752H1026.52V57H1023.35C1019.1 57 1016.98 54.936 1016.98 50.808V41.196H1014.6V37.056H1016.98V32.124H1022.05V37.056H1026.52V41.196H1022.05Z" fill="white"/>
<path d="M1047.29 31.872V47.424C1047.29 49.128 1047.73 50.436 1048.62 51.348C1049.51 52.236 1050.76 52.68 1052.37 52.68C1054 52.68 1055.26 52.236 1056.15 51.348C1057.03 50.436 1057.48 49.128 1057.48 47.424V31.872H1062.55V47.388C1062.55 49.524 1062.09 51.336 1061.15 52.824C1060.24 54.288 1059 55.392 1057.44 56.136C1055.91 56.88 1054.19 57.252 1052.29 57.252C1050.42 57.252 1048.72 56.88 1047.18 56.136C1045.67 55.392 1044.47 54.288 1043.58 52.824C1042.69 51.336 1042.25 49.524 1042.25 47.388V31.872H1047.29ZM1076.86 57.324C1075.22 57.324 1073.76 57.036 1072.46 56.46C1071.17 55.86 1070.14 55.056 1069.37 54.048C1068.62 53.04 1068.22 51.924 1068.14 50.7H1073.22C1073.32 51.468 1073.69 52.104 1074.34 52.608C1075.01 53.112 1075.84 53.364 1076.82 53.364C1077.78 53.364 1078.52 53.172 1079.05 52.788C1079.6 52.404 1079.88 51.912 1079.88 51.312C1079.88 50.664 1079.54 50.184 1078.87 49.872C1078.22 49.536 1077.18 49.176 1075.74 48.792C1074.25 48.432 1073.03 48.06 1072.07 47.676C1071.13 47.292 1070.32 46.704 1069.62 45.912C1068.95 45.12 1068.61 44.052 1068.61 42.708C1068.61 41.604 1068.92 40.596 1069.55 39.684C1070.2 38.772 1071.11 38.052 1072.28 37.524C1073.48 36.996 1074.89 36.732 1076.5 36.732C1078.87 36.732 1080.77 37.332 1082.18 38.532C1083.6 39.708 1084.38 41.304 1084.52 43.32H1079.7C1079.63 42.528 1079.29 41.904 1078.69 41.448C1078.12 40.968 1077.34 40.728 1076.35 40.728C1075.44 40.728 1074.73 40.896 1074.23 41.232C1073.75 41.568 1073.51 42.036 1073.51 42.636C1073.51 43.308 1073.84 43.824 1074.52 44.184C1075.19 44.52 1076.23 44.868 1077.65 45.228C1079.09 45.588 1080.28 45.96 1081.21 46.344C1082.15 46.728 1082.95 47.328 1083.62 48.144C1084.32 48.936 1084.68 49.992 1084.7 51.312C1084.7 52.464 1084.38 53.496 1083.73 54.408C1083.11 55.32 1082.2 56.04 1081 56.568C1079.82 57.072 1078.44 57.324 1076.86 57.324Z" fill="#FF7433"/>
<rect x="813" width="329" height="86" rx="1" stroke="#D9D9D9" stroke-width="4" mask="url(#path-1-inside-1)"/>
<rect x="-7" y="44" width="820" height="2" fill="#C4C4C4"/>
<rect width="779" height="2" transform="matrix(1 0 0 -1 1142 45)" fill="#C4C4C4"/>
</svg>
