<svg width="1920" height="86" viewBox="0 0 1920 86" fill="none" xmlns="http://www.w3.org/2000/svg">
<path d="M870.148 57.252C867.796 57.252 865.636 56.7 863.668 55.596C861.7 54.492 860.14 52.968 858.988 51.024C857.836 49.056 857.26 46.836 857.26 44.364C857.26 41.916 857.836 39.72 858.988 37.776C860.14 35.808 861.7 34.272 863.668 33.168C865.636 32.064 867.796 31.512 870.148 31.512C872.524 31.512 874.684 32.064 876.628 33.168C878.596 34.272 880.144 35.808 881.272 37.776C882.424 39.72 883 41.916 883 44.364C883 46.836 882.424 49.056 881.272 51.024C880.144 52.968 878.596 54.492 876.628 55.596C874.66 56.7 872.5 57.252 870.148 57.252ZM870.148 52.752C871.66 52.752 872.992 52.416 874.144 51.744C875.296 51.048 876.196 50.064 876.844 48.792C877.492 47.52 877.816 46.044 877.816 44.364C877.816 42.684 877.492 41.22 876.844 39.972C876.196 38.7 875.296 37.728 874.144 37.056C872.992 36.384 871.66 36.048 870.148 36.048C868.636 36.048 867.292 36.384 866.116 37.056C864.964 37.728 864.064 38.7 863.416 39.972C862.768 41.22 862.444 42.684 862.444 44.364C862.444 46.044 862.768 47.52 863.416 48.792C864.064 50.064 864.964 51.048 866.116 51.744C867.292 52.416 868.636 52.752 870.148 52.752ZM907.378 37.056V57H902.302V54.48C901.654 55.344 900.802 56.028 899.746 56.532C898.714 57.012 897.586 57.252 896.362 57.252C894.802 57.252 893.422 56.928 892.222 56.28C891.022 55.608 890.074 54.636 889.378 53.364C888.706 52.068 888.37 50.532 888.37 48.756V37.056H893.41V48.036C893.41 49.62 893.806 50.844 894.598 51.708C895.39 52.548 896.47 52.968 897.838 52.968C899.23 52.968 900.322 52.548 901.114 51.708C901.906 50.844 902.302 49.62 902.302 48.036V37.056H907.378ZM919.19 40.152C919.838 39.096 920.678 38.268 921.71 37.668C922.766 37.068 923.966 36.768 925.31 36.768V42.06H923.978C922.394 42.06 921.194 42.432 920.378 43.176C919.586 43.92 919.19 45.216 919.19 47.064V57H914.15V37.056H919.19V40.152Z" fill="white"/>
<path d="M949.559 57.252C947.807 57.252 946.223 56.952 944.807 56.352C943.415 55.752 942.311 54.888 941.495 53.76C940.679 52.632 940.259 51.3 940.235 49.764H945.635C945.707 50.796 946.067 51.612 946.715 52.212C947.387 52.812 948.299 53.112 949.451 53.112C950.627 53.112 951.551 52.836 952.223 52.284C952.895 51.708 953.231 50.964 953.231 50.052C953.231 49.308 953.003 48.696 952.547 48.216C952.091 47.736 951.515 47.364 950.819 47.1C950.147 46.812 949.211 46.5 948.011 46.164C946.379 45.684 945.047 45.216 944.015 44.76C943.007 44.28 942.131 43.572 941.387 42.636C940.667 41.676 940.307 40.404 940.307 38.82C940.307 37.332 940.679 36.036 941.423 34.932C942.167 33.828 943.211 32.988 944.555 32.412C945.899 31.812 947.435 31.512 949.163 31.512C951.755 31.512 953.855 32.148 955.463 33.42C957.095 34.668 957.995 36.42 958.163 38.676H952.619C952.571 37.812 952.199 37.104 951.503 36.552C950.831 35.976 949.931 35.688 948.803 35.688C947.819 35.688 947.027 35.94 946.427 36.444C945.851 36.948 945.563 37.68 945.563 38.64C945.563 39.312 945.779 39.876 946.211 40.332C946.667 40.764 947.219 41.124 947.867 41.412C948.539 41.676 949.475 41.988 950.675 42.348C952.307 42.828 953.639 43.308 954.671 43.788C955.703 44.268 956.591 44.988 957.335 45.948C958.079 46.908 958.451 48.168 958.451 49.728C958.451 51.072 958.103 52.32 957.407 53.472C956.711 54.624 955.691 55.548 954.347 56.244C953.003 56.916 951.407 57.252 949.559 57.252ZM983.161 46.596C983.161 47.316 983.113 47.964 983.017 48.54H968.437C968.557 49.98 969.061 51.108 969.949 51.924C970.837 52.74 971.929 53.148 973.225 53.148C975.097 53.148 976.429 52.344 977.221 50.736H982.657C982.081 52.656 980.977 54.24 979.345 55.488C977.713 56.712 975.709 57.324 973.333 57.324C971.413 57.324 969.685 56.904 968.149 56.064C966.637 55.2 965.449 53.988 964.585 52.428C963.745 50.868 963.325 49.068 963.325 47.028C963.325 44.964 963.745 43.152 964.585 41.592C965.425 40.032 966.601 38.832 968.113 37.992C969.625 37.152 971.365 36.732 973.333 36.732C975.229 36.732 976.921 37.14 978.409 37.956C979.921 38.772 981.085 39.936 981.901 41.448C982.741 42.936 983.161 44.652 983.161 46.596ZM977.941 45.156C977.917 43.86 977.449 42.828 976.537 42.06C975.625 41.268 974.509 40.872 973.189 40.872C971.941 40.872 970.885 41.256 970.021 42.024C969.181 42.768 968.665 43.812 968.473 45.156H977.941ZM993.679 40.152C994.327 39.096 995.167 38.268 996.199 37.668C997.255 37.068 998.455 36.768 999.799 36.768V42.06H998.467C996.883 42.06 995.683 42.432 994.867 43.176C994.075 43.92 993.679 45.216 993.679 47.064V57H988.639V37.056H993.679V40.152ZM1013.31 52.356L1018.35 37.056H1023.71L1016.33 57H1010.21L1002.87 37.056H1008.27L1013.31 52.356ZM1030.9 34.68C1030.01 34.68 1029.27 34.404 1028.67 33.852C1028.09 33.276 1027.8 32.568 1027.8 31.728C1027.8 30.888 1028.09 30.192 1028.67 29.64C1029.27 29.064 1030.01 28.776 1030.9 28.776C1031.79 28.776 1032.52 29.064 1033.1 29.64C1033.7 30.192 1034 30.888 1034 31.728C1034 32.568 1033.7 33.276 1033.1 33.852C1032.52 34.404 1031.79 34.68 1030.9 34.68ZM1033.38 37.056V57H1028.34V37.056H1033.38ZM1038.87 47.028C1038.87 44.964 1039.29 43.164 1040.13 41.628C1040.97 40.068 1042.13 38.868 1043.62 38.028C1045.11 37.164 1046.81 36.732 1048.73 36.732C1051.2 36.732 1053.24 37.356 1054.85 38.604C1056.48 39.828 1057.58 41.556 1058.13 43.788H1052.69C1052.4 42.924 1051.91 42.252 1051.22 41.772C1050.54 41.268 1049.7 41.016 1048.7 41.016C1047.26 41.016 1046.12 41.544 1045.28 42.6C1044.44 43.632 1044.02 45.108 1044.02 47.028C1044.02 48.924 1044.44 50.4 1045.28 51.456C1046.12 52.488 1047.26 53.004 1048.7 53.004C1050.74 53.004 1052.07 52.092 1052.69 50.268H1058.13C1057.58 52.428 1056.48 54.144 1054.85 55.416C1053.22 56.688 1051.18 57.324 1048.73 57.324C1046.81 57.324 1045.11 56.904 1043.62 56.064C1042.13 55.2 1040.97 54 1040.13 52.464C1039.29 50.904 1038.87 49.092 1038.87 47.028ZM1082.16 46.596C1082.16 47.316 1082.11 47.964 1082.02 48.54H1067.44C1067.56 49.98 1068.06 51.108 1068.95 51.924C1069.84 52.74 1070.93 53.148 1072.22 53.148C1074.1 53.148 1075.43 52.344 1076.22 50.736H1081.66C1081.08 52.656 1079.98 54.24 1078.34 55.488C1076.71 56.712 1074.71 57.324 1072.33 57.324C1070.41 57.324 1068.68 56.904 1067.15 56.064C1065.64 55.2 1064.45 53.988 1063.58 52.428C1062.74 50.868 1062.32 49.068 1062.32 47.028C1062.32 44.964 1062.74 43.152 1063.58 41.592C1064.42 40.032 1065.6 38.832 1067.11 37.992C1068.62 37.152 1070.36 36.732 1072.33 36.732C1074.23 36.732 1075.92 37.14 1077.41 37.956C1078.92 38.772 1080.08 39.936 1080.9 41.448C1081.74 42.936 1082.16 44.652 1082.16 46.596ZM1076.94 45.156C1076.92 43.86 1076.45 42.828 1075.54 42.06C1074.62 41.268 1073.51 40.872 1072.19 40.872C1070.94 40.872 1069.88 41.256 1069.02 42.024C1068.18 42.768 1067.66 43.812 1067.47 45.156H1076.94ZM1095.27 57.324C1093.64 57.324 1092.18 57.036 1090.88 56.46C1089.58 55.86 1088.55 55.056 1087.78 54.048C1087.04 53.04 1086.63 51.924 1086.56 50.7H1091.64C1091.73 51.468 1092.1 52.104 1092.75 52.608C1093.42 53.112 1094.25 53.364 1095.24 53.364C1096.2 53.364 1096.94 53.172 1097.47 52.788C1098.02 52.404 1098.3 51.912 1098.3 51.312C1098.3 50.664 1097.96 50.184 1097.29 49.872C1096.64 49.536 1095.6 49.176 1094.16 48.792C1092.67 48.432 1091.44 48.06 1090.48 47.676C1089.55 47.292 1088.73 46.704 1088.04 45.912C1087.36 45.12 1087.03 44.052 1087.03 42.708C1087.03 41.604 1087.34 40.596 1087.96 39.684C1088.61 38.772 1089.52 38.052 1090.7 37.524C1091.9 36.996 1093.3 36.732 1094.91 36.732C1097.29 36.732 1099.18 37.332 1100.6 38.532C1102.02 39.708 1102.8 41.304 1102.94 43.32H1098.12C1098.04 42.528 1097.71 41.904 1097.11 41.448C1096.53 40.968 1095.75 40.728 1094.77 40.728C1093.86 40.728 1093.15 40.896 1092.64 41.232C1092.16 41.568 1091.92 42.036 1091.92 42.636C1091.92 43.308 1092.26 43.824 1092.93 44.184C1093.6 44.52 1094.65 44.868 1096.06 45.228C1097.5 45.588 1098.69 45.96 1099.63 46.344C1100.56 46.728 1101.37 47.328 1102.04 48.144C1102.74 48.936 1103.1 49.992 1103.12 51.312C1103.12 52.464 1102.8 53.496 1102.15 54.408C1101.52 55.32 1100.61 56.04 1099.41 56.568C1098.24 57.072 1096.86 57.324 1095.27 57.324Z" fill="#FF7433"/>
<rect x="816" width="329" height="86" rx="1" stroke="#D9D9D9" stroke-width="4" mask="url(#path-1-inside-1)"/>
<rect x="-4" y="44" width="820" height="2" fill="#C4C4C4"/>
<rect width="779" height="2" transform="matrix(1 0 0 -1 1145 45)" fill="#C4C4C4"/>
</svg>
