<svg width="1920" height="86" viewBox="0 0 1920 86" fill="none" xmlns="http://www.w3.org/2000/svg">
<path d="M898.148 57.252C895.796 57.252 893.636 56.7 891.668 55.596C889.7 54.492 888.14 52.968 886.988 51.024C885.836 49.056 885.26 46.836 885.26 44.364C885.26 41.916 885.836 39.72 886.988 37.776C888.14 35.808 889.7 34.272 891.668 33.168C893.636 32.064 895.796 31.512 898.148 31.512C900.524 31.512 902.684 32.064 904.628 33.168C906.596 34.272 908.144 35.808 909.272 37.776C910.424 39.72 911 41.916 911 44.364C911 46.836 910.424 49.056 909.272 51.024C908.144 52.968 906.596 54.492 904.628 55.596C902.66 56.7 900.5 57.252 898.148 57.252ZM898.148 52.752C899.66 52.752 900.992 52.416 902.144 51.744C903.296 51.048 904.196 50.064 904.844 48.792C905.492 47.52 905.816 46.044 905.816 44.364C905.816 42.684 905.492 41.22 904.844 39.972C904.196 38.7 903.296 37.728 902.144 37.056C900.992 36.384 899.66 36.048 898.148 36.048C896.636 36.048 895.292 36.384 894.116 37.056C892.964 37.728 892.064 38.7 891.416 39.972C890.768 41.22 890.444 42.684 890.444 44.364C890.444 46.044 890.768 47.52 891.416 48.792C892.064 50.064 892.964 51.048 894.116 51.744C895.292 52.416 896.636 52.752 898.148 52.752ZM935.378 37.056V57H930.302V54.48C929.654 55.344 928.802 56.028 927.746 56.532C926.714 57.012 925.586 57.252 924.362 57.252C922.802 57.252 921.422 56.928 920.222 56.28C919.022 55.608 918.074 54.636 917.378 53.364C916.706 52.068 916.37 50.532 916.37 48.756V37.056H921.41V48.036C921.41 49.62 921.806 50.844 922.598 51.708C923.39 52.548 924.47 52.968 925.838 52.968C927.23 52.968 928.322 52.548 929.114 51.708C929.906 50.844 930.302 49.62 930.302 48.036V37.056H935.378ZM947.19 40.152C947.838 39.096 948.678 38.268 949.71 37.668C950.766 37.068 951.966 36.768 953.31 36.768V42.06H951.978C950.394 42.06 949.194 42.432 948.378 43.176C947.586 43.92 947.19 45.216 947.19 47.064V57H942.15V37.056H947.19V40.152Z" fill="white"/>
<path d="M985.983 31.872V35.94H979.287V57H974.247V35.94H967.551V31.872H985.983ZM1010 46.596C1010 47.316 1009.95 47.964 1009.86 48.54H995.277C995.397 49.98 995.901 51.108 996.789 51.924C997.677 52.74 998.769 53.148 1000.06 53.148C1001.94 53.148 1003.27 52.344 1004.06 50.736H1009.5C1008.92 52.656 1007.82 54.24 1006.18 55.488C1004.55 56.712 1002.55 57.324 1000.17 57.324C998.253 57.324 996.525 56.904 994.989 56.064C993.477 55.2 992.289 53.988 991.425 52.428C990.585 50.868 990.165 49.068 990.165 47.028C990.165 44.964 990.585 43.152 991.425 41.592C992.265 40.032 993.441 38.832 994.953 37.992C996.465 37.152 998.205 36.732 1000.17 36.732C1002.07 36.732 1003.76 37.14 1005.25 37.956C1006.76 38.772 1007.92 39.936 1008.74 41.448C1009.58 42.936 1010 44.652 1010 46.596ZM1004.78 45.156C1004.76 43.86 1004.29 42.828 1003.38 42.06C1002.46 41.268 1001.35 40.872 1000.03 40.872C998.781 40.872 997.725 41.256 996.861 42.024C996.021 42.768 995.505 43.812 995.313 45.156H1004.78ZM1014.18 46.956C1014.18 44.94 1014.58 43.152 1015.37 41.592C1016.19 40.032 1017.28 38.832 1018.65 37.992C1020.04 37.152 1021.59 36.732 1023.29 36.732C1024.78 36.732 1026.08 37.032 1027.18 37.632C1028.31 38.232 1029.21 38.988 1029.88 39.9V37.056H1034.96V57H1029.88V54.084C1029.23 55.02 1028.33 55.8 1027.18 56.424C1026.05 57.024 1024.74 57.324 1023.26 57.324C1021.58 57.324 1020.04 56.892 1018.65 56.028C1017.28 55.164 1016.19 53.952 1015.37 52.392C1014.58 50.808 1014.18 48.996 1014.18 46.956ZM1029.88 47.028C1029.88 45.804 1029.64 44.76 1029.16 43.896C1028.68 43.008 1028.03 42.336 1027.22 41.88C1026.4 41.4 1025.52 41.16 1024.59 41.16C1023.65 41.16 1022.79 41.388 1022 41.844C1021.2 42.3 1020.56 42.972 1020.05 43.86C1019.57 44.724 1019.33 45.756 1019.33 46.956C1019.33 48.156 1019.57 49.212 1020.05 50.124C1020.56 51.012 1021.2 51.696 1022 52.176C1022.81 52.656 1023.68 52.896 1024.59 52.896C1025.52 52.896 1026.4 52.668 1027.22 52.212C1028.03 51.732 1028.68 51.06 1029.16 50.196C1029.64 49.308 1029.88 48.252 1029.88 47.028ZM1066.45 36.768C1068.89 36.768 1070.86 37.524 1072.35 39.036C1073.86 40.524 1074.62 42.612 1074.62 45.3V57H1069.58V45.984C1069.58 44.424 1069.18 43.236 1068.39 42.42C1067.6 41.58 1066.52 41.16 1065.15 41.16C1063.78 41.16 1062.69 41.58 1061.87 42.42C1061.08 43.236 1060.69 44.424 1060.69 45.984V57H1055.65V45.984C1055.65 44.424 1055.25 43.236 1054.46 42.42C1053.67 41.58 1052.59 41.16 1051.22 41.16C1049.83 41.16 1048.72 41.58 1047.91 42.42C1047.11 43.236 1046.72 44.424 1046.72 45.984V57H1041.68V37.056H1046.72V39.468C1047.37 38.628 1048.19 37.968 1049.2 37.488C1050.23 37.008 1051.36 36.768 1052.59 36.768C1054.15 36.768 1055.54 37.104 1056.76 37.776C1057.99 38.424 1058.93 39.36 1059.61 40.584C1060.25 39.432 1061.19 38.508 1062.41 37.812C1063.66 37.116 1065.01 36.768 1066.45 36.768Z" fill="#FF7433" fill-opacity="0.9"/>
<rect x="816" width="329" height="86" rx="1" stroke="#D9D9D9" stroke-width="4" mask="url(#path-1-inside-1_49_44)"/>
<rect x="-4" y="44" width="820" height="2" fill="#C4C4C4"/>
<rect width="779" height="2" transform="matrix(1 0 0 -1 1145 45)" fill="#C4C4C4"/>
</svg>
