<svg width="1920" height="86" viewBox="0 0 1920 86" fill="none" xmlns="http://www.w3.org/2000/svg">
<path d="M873.648 57.252C871.296 57.252 869.136 56.7 867.168 55.596C865.2 54.492 863.64 52.968 862.488 51.024C861.336 49.056 860.76 46.836 860.76 44.364C860.76 41.916 861.336 39.72 862.488 37.776C863.64 35.808 865.2 34.272 867.168 33.168C869.136 32.064 871.296 31.512 873.648 31.512C876.024 31.512 878.184 32.064 880.128 33.168C882.096 34.272 883.644 35.808 884.772 37.776C885.924 39.72 886.5 41.916 886.5 44.364C886.5 46.836 885.924 49.056 884.772 51.024C883.644 52.968 882.096 54.492 880.128 55.596C878.16 56.7 876 57.252 873.648 57.252ZM873.648 52.752C875.16 52.752 876.492 52.416 877.644 51.744C878.796 51.048 879.696 50.064 880.344 48.792C880.992 47.52 881.316 46.044 881.316 44.364C881.316 42.684 880.992 41.22 880.344 39.972C879.696 38.7 878.796 37.728 877.644 37.056C876.492 36.384 875.16 36.048 873.648 36.048C872.136 36.048 870.792 36.384 869.616 37.056C868.464 37.728 867.564 38.7 866.916 39.972C866.268 41.22 865.944 42.684 865.944 44.364C865.944 46.044 866.268 47.52 866.916 48.792C867.564 50.064 868.464 51.048 869.616 51.744C870.792 52.416 872.136 52.752 873.648 52.752ZM910.878 37.056V57H905.802V54.48C905.154 55.344 904.302 56.028 903.246 56.532C902.214 57.012 901.086 57.252 899.862 57.252C898.302 57.252 896.922 56.928 895.722 56.28C894.522 55.608 893.574 54.636 892.878 53.364C892.206 52.068 891.87 50.532 891.87 48.756V37.056H896.91V48.036C896.91 49.62 897.306 50.844 898.098 51.708C898.89 52.548 899.97 52.968 901.338 52.968C902.73 52.968 903.822 52.548 904.614 51.708C905.406 50.844 905.802 49.62 905.802 48.036V37.056H910.878ZM922.69 40.152C923.338 39.096 924.178 38.268 925.21 37.668C926.266 37.068 927.466 36.768 928.81 36.768V42.06H927.478C925.894 42.06 924.694 42.432 923.878 43.176C923.086 43.92 922.69 45.216 922.69 47.064V57H917.65V37.056H922.69V40.152Z" fill="white"/>
<path d="M962.707 39.648C962.707 40.992 962.383 42.252 961.735 43.428C961.111 44.604 960.115 45.552 958.747 46.272C957.403 46.992 955.699 47.352 953.635 47.352H949.423V57H944.383V31.872H953.635C955.579 31.872 957.235 32.208 958.603 32.88C959.971 33.552 960.991 34.476 961.663 35.652C962.359 36.828 962.707 38.16 962.707 39.648ZM953.419 43.284C954.811 43.284 955.843 42.972 956.515 42.348C957.187 41.7 957.523 40.8 957.523 39.648C957.523 37.2 956.155 35.976 953.419 35.976H949.423V43.284H953.419ZM973.126 40.152C973.774 39.096 974.614 38.268 975.646 37.668C976.702 37.068 977.902 36.768 979.246 36.768V42.06H977.914C976.33 42.06 975.13 42.432 974.314 43.176C973.522 43.92 973.126 45.216 973.126 47.064V57H968.086V37.056H973.126V40.152ZM993.296 57.324C991.376 57.324 989.648 56.904 988.112 56.064C986.576 55.2 985.364 53.988 984.476 52.428C983.612 50.868 983.18 49.068 983.18 47.028C983.18 44.988 983.624 43.188 984.512 41.628C985.424 40.068 986.66 38.868 988.22 38.028C989.78 37.164 991.52 36.732 993.44 36.732C995.36 36.732 997.1 37.164 998.66 38.028C1000.22 38.868 1001.44 40.068 1002.33 41.628C1003.24 43.188 1003.7 44.988 1003.7 47.028C1003.7 49.068 1003.23 50.868 1002.3 52.428C1001.38 53.988 1000.14 55.2 998.552 56.064C996.992 56.904 995.24 57.324 993.296 57.324ZM993.296 52.932C994.208 52.932 995.06 52.716 995.852 52.284C996.668 51.828 997.316 51.156 997.796 50.268C998.276 49.38 998.516 48.3 998.516 47.028C998.516 45.132 998.012 43.68 997.004 42.672C996.02 41.64 994.808 41.124 993.368 41.124C991.928 41.124 990.716 41.64 989.732 42.672C988.772 43.68 988.292 45.132 988.292 47.028C988.292 48.924 988.76 50.388 989.696 51.42C990.656 52.428 991.856 52.932 993.296 52.932ZM1011.75 34.68C1010.84 34.68 1010.09 34.404 1009.49 33.852C1008.91 33.276 1008.62 32.568 1008.62 31.728C1008.62 30.888 1008.91 30.192 1009.49 29.64C1010.09 29.064 1010.84 28.776 1011.75 28.776C1012.64 28.776 1013.37 29.064 1013.95 29.64C1014.53 30.192 1014.81 30.888 1014.81 31.728C1014.81 32.568 1014.53 33.276 1013.95 33.852C1013.37 34.404 1012.64 34.68 1011.75 34.68ZM1014.24 60.276C1014.24 62.484 1013.69 64.068 1012.58 65.028C1011.5 66.012 1009.94 66.504 1007.9 66.504H1005.67V62.22H1007.11C1007.88 62.22 1008.42 62.064 1008.73 61.752C1009.04 61.464 1009.2 60.984 1009.2 60.312V37.056H1014.24V60.276ZM1039.56 46.596C1039.56 47.316 1039.51 47.964 1039.41 48.54H1024.83C1024.95 49.98 1025.46 51.108 1026.34 51.924C1027.23 52.74 1028.32 53.148 1029.62 53.148C1031.49 53.148 1032.82 52.344 1033.62 50.736H1039.05C1038.48 52.656 1037.37 54.24 1035.74 55.488C1034.11 56.712 1032.1 57.324 1029.73 57.324C1027.81 57.324 1026.08 56.904 1024.54 56.064C1023.03 55.2 1021.84 53.988 1020.98 52.428C1020.14 50.868 1019.72 49.068 1019.72 47.028C1019.72 44.964 1020.14 43.152 1020.98 41.592C1021.82 40.032 1023 38.832 1024.51 37.992C1026.02 37.152 1027.76 36.732 1029.73 36.732C1031.62 36.732 1033.32 37.14 1034.8 37.956C1036.32 38.772 1037.48 39.936 1038.3 41.448C1039.14 42.936 1039.56 44.652 1039.56 46.596ZM1034.34 45.156C1034.31 43.86 1033.84 42.828 1032.93 42.06C1032.02 41.268 1030.9 40.872 1029.58 40.872C1028.34 40.872 1027.28 41.256 1026.42 42.024C1025.58 42.768 1025.06 43.812 1024.87 45.156H1034.34ZM1043.74 47.028C1043.74 44.964 1044.16 43.164 1045 41.628C1045.84 40.068 1047 38.868 1048.49 38.028C1049.98 37.164 1051.68 36.732 1053.6 36.732C1056.08 36.732 1058.12 37.356 1059.72 38.604C1061.36 39.828 1062.45 41.556 1063 43.788H1057.56C1057.28 42.924 1056.78 42.252 1056.09 41.772C1055.42 41.268 1054.58 41.016 1053.57 41.016C1052.13 41.016 1050.99 41.544 1050.15 42.6C1049.31 43.632 1048.89 45.108 1048.89 47.028C1048.89 48.924 1049.31 50.4 1050.15 51.456C1050.99 52.488 1052.13 53.004 1053.57 53.004C1055.61 53.004 1056.94 52.092 1057.56 50.268H1063C1062.45 52.428 1061.36 54.144 1059.72 55.416C1058.09 56.688 1056.05 57.324 1053.6 57.324C1051.68 57.324 1049.98 56.904 1048.49 56.064C1047 55.2 1045.84 54 1045 52.464C1044.16 50.904 1043.74 49.092 1043.74 47.028ZM1074.36 41.196V50.844C1074.36 51.516 1074.52 52.008 1074.83 52.32C1075.16 52.608 1075.72 52.752 1076.48 52.752H1078.82V57H1075.66C1071.41 57 1069.28 54.936 1069.28 50.808V41.196H1066.91V37.056H1069.28V32.124H1074.36V37.056H1078.82V41.196H1074.36ZM1091.88 57.324C1090.25 57.324 1088.78 57.036 1087.49 56.46C1086.19 55.86 1085.16 55.056 1084.39 54.048C1083.65 53.04 1083.24 51.924 1083.17 50.7H1088.24C1088.34 51.468 1088.71 52.104 1089.36 52.608C1090.03 53.112 1090.86 53.364 1091.84 53.364C1092.8 53.364 1093.55 53.172 1094.08 52.788C1094.63 52.404 1094.9 51.912 1094.9 51.312C1094.9 50.664 1094.57 50.184 1093.9 49.872C1093.25 49.536 1092.2 49.176 1090.76 48.792C1089.28 48.432 1088.05 48.06 1087.09 47.676C1086.16 47.292 1085.34 46.704 1084.64 45.912C1083.97 45.12 1083.64 44.052 1083.64 42.708C1083.64 41.604 1083.95 40.596 1084.57 39.684C1085.22 38.772 1086.13 38.052 1087.31 37.524C1088.51 36.996 1089.91 36.732 1091.52 36.732C1093.9 36.732 1095.79 37.332 1097.21 38.532C1098.62 39.708 1099.4 41.304 1099.55 43.32H1094.72C1094.65 42.528 1094.32 41.904 1093.72 41.448C1093.14 40.968 1092.36 40.728 1091.38 40.728C1090.46 40.728 1089.76 40.896 1089.25 41.232C1088.77 41.568 1088.53 42.036 1088.53 42.636C1088.53 43.308 1088.87 43.824 1089.54 44.184C1090.21 44.52 1091.26 44.868 1092.67 45.228C1094.11 45.588 1095.3 45.96 1096.24 46.344C1097.17 46.728 1097.98 47.328 1098.65 48.144C1099.34 48.936 1099.7 49.992 1099.73 51.312C1099.73 52.464 1099.4 53.496 1098.76 54.408C1098.13 55.32 1097.22 56.04 1096.02 56.568C1094.84 57.072 1093.46 57.324 1091.88 57.324Z" fill="#FF7433"/>
<rect x="816" width="329" height="86" rx="1" stroke="#D9D9D9" stroke-width="4" mask="url(#path-1-inside-1)"/>
<rect x="-4" y="44" width="820" height="2" fill="#C4C4C4"/>
<rect width="779" height="2" transform="matrix(1 0 0 -1 1145 45)" fill="#C4C4C4"/>
</svg>
